<?xml version="1.0" standalone="no"?>
<!DOCTYPE svg PUBLIC "-//W3C//DTD SVG 20010904//EN"
 "http://www.w3.org/TR/2001/REC-SVG-20010904/DTD/svg10.dtd">
<svg version="1.0" xmlns="http://www.w3.org/2000/svg"
 width="256.000000pt" height="256.000000pt" viewBox="0 0 256.000000 256.000000"
 preserveAspectRatio="xMidYMid meet">
<metadata>
Created by potrace 1.11, written by Peter Selinger 2001-2013
</metadata>
<g transform="translate(0.000000,256.000000) scale(0.100000,-0.100000)"
fill="#000000" stroke="none">
<path d="M702 2435 c-74 -17 -99 -31 -163 -95 -137 -135 -141 -264 -11 -400
79 -82 150 -113 257 -112 99 0 171 29 244 97 135 126 136 294 4 417 -99 91
-206 121 -331 93z"/>
<path d="M1667 2430 c-70 -22 -92 -36 -153 -97 -50 -51 -92 -129 -95 -178 -5
-77 23 -140 100 -218 76 -79 140 -108 246 -110 71 -1 88 2 149 31 77 36 156
110 182 170 15 34 22 145 11 182 -21 74 -95 154 -186 199 -79 40 -168 47 -254
21z"/>
<path d="M310 1735 c0 -18 -4 -17 85 -20 73 -2 167 -26 198 -50 43 -32 44 -59
45 -704 1 -339 -1 -637 -4 -663 -13 -106 -85 -150 -246 -150 -77 0 -88 -2 -88
-17 0 -16 56 -17 988 -17 870 1 987 3 987 16 0 12 -17 15 -83 17 -129 4 -213
38 -237 97 -22 51 -21 1302 0 1366 24 73 103 107 248 105 67 0 77 2 77 17 0
17 -49 18 -985 18 -869 0 -985 -2 -985 -15z m1213 -45 c55 -21 86 -50 95 -89
2 -9 4 -308 5 -666 1 -638 0 -651 -20 -696 -19 -42 -27 -49 -79 -69 -53 -19
-78 -22 -230 -21 -148 0 -178 3 -225 21 -30 11 -61 26 -70 33 -43 33 -43 31
-44 712 -1 780 -7 741 116 782 48 16 83 19 225 17 148 -1 176 -4 227 -24z"/>
</g>
</svg>
